<svg version="1.1" xmlns="http://www.w3.org/2000/svg" width="64" height="64" viewBox="0 0 64 64"><path d="M19.7 15.033h8.233v1.933h2.067v2.067h4v-2.067h2.067v-1.9h8.233v1.9h2.9v2.067h2.033v2.033h2.2v11.633h-2.333v1.867h-1.867v2.067h-1.867v1.967h-1.867v1.933h-1.767v2.133h-3.567v1.933h-2.1v2.1h-2v2.233H29.9v-2.233h-1.967v-2.1h-2.1v-1.933H22.267v-2.133h-1.767v-1.933h-1.767v-1.967h-1.967v-2.067h-1.867v-1.867h-2.333V21.067h2.2v-2.033h2.033v-2.067h2.9z" fill="#F27E94"/><path d="M36.067 15.067h8.233v1.9h2.9v2.067h2.033v2.033h2.2v11.633h-2.333v1.867h-1.867v2.067h-1.867v1.967h-1.867v1.933h-1.767v2.133h-3.567v1.933h-2.1v2.1h-2v2.233H29.9v-2.233h-1.967v-2.1h2.1v2.1h3.933l-0.002 -0.781c-0.001 -1.144 0.009 -2.288 0.019 -3.431l0.001 -0.07q0.008 -0.909 0.016 -1.817h2.067v-2h3.7v-2.033h1.767v-2h3.833V29.967h1.867V23.167h-1.9V19.033h-1.067v-2.033h-6.167v2h-2v2.067c-1.334 0.026 -2.666 0.038 -4 0.036 -0.261 0 -0.522 -0.001 -0.783 -0.001 -0.461 0 -0.922 -0.001 -1.383 -0.002v-2.067h-2v-2.033h2.033v2.033h4.033v-2.067h2.067z" fill="#E65680"/><path d="M14.8 19.067h2v2h-1.9v8.967h1.867v2.667h1.967v1.867h3.533v2.067h1.8v1.967h1.767v3.933h2.1v2.067h-2.1v-1.933H22.267v-2.133h-1.767v-1.933h-1.767v-1.967h-1.967v-2.067h-1.867v-1.867h-2.333V21.067h2.233z" fill="#E45680"/><path d="M41.533 34.567h3.833v2.033h-1.867v1.967h1.833v-1.933h0.033v1.967h-1.867v1.933h-1.767v2.133h-3.567v1.933h-2.1v2.1h-2v2.233H29.9v-2.233h-1.967v-2.1h2.1v2.1h3.933l-0.002 -0.781c-0.001 -1.144 0.009 -2.288 0.019 -3.431l0.001 -0.07q0.008 -0.909 0.016 -1.817h2.067v-2h3.7v-2.033h1.767z" fill="#E65680"/><path d="M19.733 17h6.233v2.033H22.3v2.2h-3.2v4.033h-2.267V19.067l2.867 -0.033z" fill="#FEFEFE"/><path d="M14.8 19.067h2v2h-1.933v11.633h-2.3V21.067h2.233z" fill="#5A3F36"/><path d="M47.233 19.067h1.967v2h2.233v11.633h-2.3V21.067h-1.9z" fill="#5A3F36"/><path d="M19.7 15.033h8.233v0.033H19.733v1.9h6.233v0.033H19.733v2.033l-0.033 0.033h-2.867v6.2h-0.067v4.767h-1.867V21.067h1.9v-2h-2v2h-0.033v-2.033h2.033v-2.067h2.9z" fill="#F8B4C1"/><path d="M27.933 44.6h2.1v2.1h3.933c-0.001 -0.679 -0.001 -0.679 -0.003 -1.357l0 -0.254 0 -0.067c0 -0.065 0 -0.13 0 -0.195l0 -0.111c0.004 -0.082 0.004 -0.082 0.037 -0.116a3.833 3.833 0 0 1 0.193 -0.004h0.127l0.135 0.001 0.123 0c0.152 0 0.305 0.001 0.457 0.001L36.067 44.6v2.1h-2v2.233H29.9v-2.233h-1.967z" fill="#5A3F36"/><path d="M27.933 17h2.033v2.033h4.067v-2.033h2.033v2.033h-2v2.067H29.933v-2.067h-2z" fill="#5A3F36"/><path d="M36.1 15.067h8.167v1.9h-8.167z" fill="#593E35"/><path d="M19.733 15.067h8.167v1.9H19.733z" fill="#593E35"/><path d="M36.067 15.067h0.033v1.9h8.167v-1.9h0.033v1.9h2.9v2.067h2.033v2.033h-0.033v-2l-0.808 0.001 -0.58 0.001q-0.373 0 -0.746 0.001c-0.934 0.002 -1.866 0.002 -2.799 -0.036v-2.033h-6.167v2h-2v2.067l-2.033 0.033v-2.067h2v-2.033h-2.033v2.033h-0.033v-2.067h2.067z" fill="#E55680"/><path d="M32.933 32.1h1.667v2.467h-0.6v0.467h-0.4v0.7h-3.3v-0.7h-0.4v-0.467h-0.567v-2.433h1.633v1.567h1.967z" fill="#5B3F36"/><path d="M37.633 28.033h1.867v0.6h0.767v0.667h0.833v2.733h-1.733v-1.867h-2v1.833h-1.433v-2.667h0.933v-0.7h0.767z" fill="#5B3F36"/><path d="M23.933 28.033h1.9v0.6h0.733v0.667h0.833v2.7h-1.667l-0.033 -1.833 -2 -0.033v1.867h-1.467v-2.7h0.967v-0.667h0.733z" fill="#5A3F36"/><path d="M25.833 40.7h4.133c0.038 2.108 0.038 2.108 0.035 2.981L30 44.6h-2.067v-2.067h-2.1z" fill="#E65680"/><path d="M38.167 40.533h3.533v2.1h-3.533v1.967h-2.1v-2.067h2.1z" fill="#593E35"/><path d="M22.3 40.533h3.533v2h2.1v2.067h-2.1v-1.967H22.3z" fill="#593E35"/><path d="M14.867 21.067h0.033v8.967h1.867v4.533h-1.867c-0.031 -1.438 -0.038 -2.874 -0.037 -4.311q0 -0.479 0 -0.958 0 -0.854 0.001 -1.708 0 -0.827 0.001 -1.654v-0.104l0 -0.516q0.001 -2.124 0.002 -4.248" fill="#E1577F"/><path d="M29.933 21.1h4.133v2.067H29.933z" fill="#E65580"/><path d="M30.033 44.6h3.967l-0.033 2.1H30.033z" fill="#E75681"/><path d="M30.033 42.533h3.967v2.067H30.033z" fill="#F7B4C1"/><path d="M40.467 17h3.8v2.033h-3.8z" fill="#E75681"/><path d="M45.367 34.567h1.867v2.067h-1.9v1.933h-1.833v-1.967h1.867z" fill="#5A3E36"/><path d="M44.3 17h2.867v2.033h-2.867z" fill="#593E35"/><path d="M16.833 17h2.867v2.033h-2.867z" fill="#593E35"/><path d="M16.767 30.033h1.967v2.667h-1.967z" fill="#F8B3C0"/><path d="M27.9 15.067h0.033v1.9h2.067v2.067h-0.033v-2.033h-2.033v2.033h-1.967v-2.067h1.933z" fill="#E75681"/><path d="M27.933 19.033h2v2.067h-2z" fill="#E55580"/><path d="M36.1 17h2v2h-2z" fill="#E75681"/><path d="M43.4 19.067h1.933v2h-1.933z" fill="#F7B4C1"/><path d="M16.767 34.567h1.867v2.067h-1.867z" fill="#5A3F36"/><path d="M16.767 32.7h1.967l0.002 0.915 0.001 0.289 0 0.225 0.001 0.119v0.113l0 0.098C18.733 34.533 18.733 34.533 18.7 34.567c-0.06 0.003 -0.121 0.004 -0.181 0.004h-0.117l-0.128 -0.001 -0.13 0q-0.171 0 -0.342 -0.001 -0.175 0 -0.349 -0.001c-0.229 0 -0.457 -0.001 -0.686 -0.002z" fill="#E75681"/><path d="M47.233 32.7h1.867v1.867h-1.867z" fill="#5A3E36"/><path d="M14.9 32.7h1.867v1.867h-1.867z" fill="#5A3F36"/><path d="M18.733 36.633h1.767v1.933h-1.767z" fill="#5A3F36"/><path d="M41.733 38.6h1.733v1.9h-1.733z" fill="#593E35"/><path d="M20.533 38.6h1.733v1.9h-1.733z" fill="#593E35"/><path d="M36.067 15.067h0.033v1.9h8.167v-1.9h0.033v1.9h2.9v2.067h2.033v2.033h-0.033v-2h-3.867v-0.033h1.833v-2.033h-2.867v2.033h-0.033v-2.033h-8.167v2.033h-0.033v-2.033h-2.033v2.033h-0.033v-2.067h2.067z" fill="#A46F73"/><path d="M19.7 15.033h8.233v0.033H19.733v1.9h6.233v0.033H19.733v2.033c-0.033 0.033 -0.033 0.033 -0.114 0.037l-0.109 0 -0.125 0 -0.139 0h-0.145q-0.197 0 -0.394 0c-0.137 0 -0.274 0 -0.412 0q-0.39 0 -0.78 -0.001 -0.444 -0.001 -0.888 -0.001 -0.914 -0.001 -1.827 -0.002v2h-0.033v-2.033h2.033v-2.067h2.9zm-2.867 1.967v2.033h2.867v-2.033z" fill="#BAA8A4"/><path d="M43.467 36.6h0.033v1.967h1.833v-1.933h0.033v1.967h-1.867v1.933h-1.767v2.133h-3.567v-0.033h3.533v-4.067h1.767zm-1.733 2v1.9h1.733v-1.9z" fill="#98696C"/><path d="M27.9 15.067h0.033v1.9h2.067v2.067h-0.033v-2.033h-2.033v2.033h-0.033v-2.033h-1.933v-0.033h1.933z" fill="#A36E73"/><path d="M14.9 32.733h0.033v1.8h1.633l0.067 -0.133c0.1 0.129 0.1 0.129 0.1 0.167h-1.833z" fill="#4F362D"/></svg>